<?xml version="1.0" encoding="utf-8"?>
<!-- Svg Vector Icons : http://www.onlinewebfonts.com/icon -->
<!DOCTYPE svg PUBLIC "-//W3C//DTD SVG 1.1//EN" "http://www.w3.org/Graphics/SVG/1.1/DTD/svg11.dtd">
<svg version="1.1" xmlns="http://www.w3.org/2000/svg" xmlns:xlink="http://www.w3.org/1999/xlink" x="0px" y="0px" viewBox="0 0 1000 1000" enable-background="new 0 0 1000 1000" xml:space="preserve">
<g><g><g id="c192_off"><path d="M661.3,86.6v124.3c113.3,58.4,190.8,176.5,190.8,312.7c0,194.5-157.7,352.1-352,352.1c-194.4,0-352.1-157.6-352.1-352.1c0-124.9,65.4-234.5,163.5-297V97.4C148,169.8,33.8,333.3,33.8,523.6C33.8,781.1,242.5,990,500,990c257.5,0,466.2-208.9,466.2-466.4C966.2,322.9,839.1,152.4,661.3,86.6z"/><path d="M491,583.8c51.2,0,92.6-30.3,92.6-67.4V77.6c0-37.3-41.4-67.6-92.6-67.6c-51.1,0-92.5,30.3-92.5,67.6v438.8C398.5,553.6,439.9,583.8,491,583.8z"/></g><g id="Capa_1_192_"></g></g><g></g><g></g><g></g><g></g><g></g><g></g><g></g><g></g><g></g><g></g><g></g><g></g><g></g><g></g><g></g></g>
</svg>
